<?xml version="1.0" encoding="UTF-8" standalone="no"?><svg width="367px" height="84px" viewBox="0 0 367 84" version="1.1" xmlns="http://www.w3.org/2000/svg" xmlns:xlink="http://www.w3.org/1999/xlink">        <title>logo</title>    <desc>Created with Sketch.</desc>    <defs></defs>    <g id="Page-1" stroke="none" stroke-width="1" fill="none" fill-rule="evenodd">        <g id="logo" fill="#FFFFFF">            <g id="logo-367x84">                <g id="Page-1">                    <g id="logo-367x84">                        <g id="Fill-1-Clipped">                            <path d="M367,46.759 L359.617,46.759 L359.323,47.966 L362.5,48.553 C362.529,56.584 362.617,59.702 362.706,62.379 C361.44,60.408 360.235,58.672 352.351,46.759 L347.556,46.759 L347.292,47.936 L349.94,48.524 L349.792,64.555 L347.498,64.938 L347.204,66.35 L354.587,66.35 L354.881,65.144 L351.704,64.555 C351.616,53.849 351.557,51.907 351.469,49.907 C352.616,51.789 353.587,53.201 362.706,66.879 L364.206,66.526 L364.382,48.553 L366.677,48.171 L367,46.759 L367,46.759 L367,46.759 Z M335.32,64.497 L335.32,56.849 L340.144,57.055 L340.879,59.172 L341.968,58.996 L341.968,53.201 L340.732,53.437 L340.144,55.231 L335.32,55.407 L335.32,48.26 L342.027,48.466 L342.673,51.289 L343.939,50.936 C344.145,49.172 344.203,48.142 344.203,46.759 L330.408,46.759 L330.143,47.966 L332.79,48.553 L332.79,64.555 L330.437,64.938 L330.143,66.35 L344.998,66.35 C345.174,64.967 345.292,63.261 345.321,61.467 L343.85,61.761 L343.027,64.762 L335.32,64.497 L335.32,64.497 L335.32,64.497 Z M325.084,48.553 L327.466,48.201 L327.79,46.759 L320.172,46.759 L319.907,47.966 L322.555,48.553 L322.555,57.9271434 L322.555,64.555 L320.201,64.938 L319.907,66.35 L327.849,66.35 L328.114,65.144 L325.084,64.555 L325.084,48.553 Z M318.142,48.171 L318.436,46.759 L311.289,46.759 L311.024,47.966 L314.171,48.583 C311.553,58.584 311.23,59.996 310.612,62.761 C309.994,60.526 309.729,59.643 305.552,47.23 L303.699,47.23 C299.552,59.82 298.993,61.437 298.611,62.791 C298.345,61.467 297.934,59.731 295.11,48.553 L297.963,48.171 L298.228,46.759 L290.639,46.759 L290.345,47.966 L292.345,48.553 L297.14,66.497 L298.993,66.497 C302.64,55.701 303.582,52.819 304.17,50.789 C304.788,52.789 305.729,55.584 309.259,66.497 L311.112,66.497 L316.201,48.583 L318.142,48.171 L318.142,48.171 L318.142,48.171 Z M290.934,35.299 L290.934,27.651 L295.758,27.857 L296.493,29.975 L297.582,29.799 L297.582,24.004 L296.346,24.239 L295.758,26.034 L290.934,26.21 L290.934,19.062 L297.64,19.268 L298.288,22.092 L299.553,21.739 C299.758,19.974 299.817,18.945 299.817,17.562 L286.021,17.562 L285.757,18.768 L288.404,19.356 L288.404,35.358 L286.051,35.741 L285.757,37.152 L300.611,37.152 C300.788,35.77 300.905,34.064 300.935,32.27 L299.464,32.564 L298.64,35.564 L290.934,35.299 L290.934,35.299 L290.934,35.299 Z M280.668,35.358 L280.668,19.356 L283.081,19.003 L283.375,17.562 L275.756,17.562 L275.491,18.768 L278.168,19.356 L278.168,26.063 L268.755,26.063 L268.755,19.356 L271.138,19.003 L271.461,17.562 L263.843,17.562 L263.578,18.768 L266.225,19.356 L266.225,35.358 L263.872,35.741 L263.578,37.152 L271.52,37.152 L271.785,35.947 L268.755,35.358 L268.755,27.798 L278.168,27.798 L278.168,35.358 L275.815,35.741 L275.521,37.152 L283.433,37.152 L283.698,35.947 L280.668,35.358 L280.668,35.358 L280.668,35.358 Z M248.253,27.151 C248.253,21.768 250.372,18.798 254.665,18.798 C255.871,18.798 257.078,18.915 258.342,19.415 L259.02,22.474 L260.255,22.121 C260.49,20.621 260.52,19.298 260.52,18.003 C259.52,17.592 258.049,17.121 255.137,17.121 C249.518,17.121 245.635,20.827 245.635,27.74 C245.635,33.77 248.695,37.594 254.578,37.594 C257.137,37.594 259.137,36.858 260.608,35.741 L260.902,33.976 C258.755,35.064 257.254,35.446 255.078,35.446 C251.401,35.446 248.253,33.152 248.253,27.151 L248.253,27.151 L248.253,27.151 Z M232.84,21.886 C232.84,19.886 234.193,18.709 236.664,18.709 C237.987,18.709 239.399,18.945 240.547,19.415 L241.047,22.151 L242.312,21.886 C242.547,20.533 242.665,19.268 242.665,17.945 C241.37,17.415 239.488,17.15 237.429,17.15 C233.076,17.15 230.693,19.445 230.693,22.504 C230.693,25.033 231.957,26.387 234.605,27.622 L237.253,28.828 C240.311,30.211 241.076,31.064 241.076,32.711 C241.076,35.064 238.899,35.888 236.605,35.888 C235.311,35.888 233.634,35.505 232.575,34.77 L231.428,31.711 L230.193,32.034 C230.193,33.535 230.31,35.005 230.546,36.241 C232.105,37.094 234.017,37.565 236.428,37.565 C240.37,37.565 243.282,35.358 243.282,31.887 C243.282,29.505 242.635,28.357 239.223,26.857 L236.37,25.592 C233.781,24.475 232.84,23.563 232.84,21.886 L232.84,21.886 L232.84,21.886 Z M226.546,64.555 L226.546,48.553 L228.928,48.201 L229.252,46.759 L221.633,46.759 L221.369,47.966 L224.016,48.553 L224.016,64.555 L221.663,64.938 L221.369,66.35 L229.311,66.35 L229.575,65.144 L226.546,64.555 L226.546,64.555 L226.546,64.555 Z M224.928,35.358 L224.928,19.356 L227.311,19.003 L227.634,17.562 L220.015,17.562 L219.751,18.768 L222.398,19.356 L222.398,35.358 L220.045,35.741 L219.751,37.152 L227.693,37.152 L227.958,35.947 L224.928,35.358 L224.928,35.358 L224.928,35.358 Z M208.308,51.083 C208.308,49.083 209.661,47.906 212.132,47.906 C213.456,47.906 214.868,48.142 216.015,48.612 L216.515,51.348 L217.78,51.083 C218.015,49.73 218.133,48.466 218.133,47.142 C216.839,46.612 214.956,46.347 212.897,46.347 C208.544,46.347 206.161,48.642 206.161,51.701 C206.161,54.231 207.426,55.584 210.073,56.82 L212.721,58.025 C215.78,59.408 216.544,60.261 216.544,61.908 C216.544,64.261 214.368,65.085 212.073,65.085 C210.779,65.085 209.102,64.703 208.044,63.967 L206.896,60.908 L205.661,61.232 C205.661,62.732 205.779,64.202 206.014,65.438 C207.573,66.291 209.485,66.762 211.897,66.762 C215.839,66.762 218.75,64.555 218.75,61.085 C218.75,58.702 218.104,57.555 214.691,56.055 L211.838,54.789 C209.25,53.672 208.308,52.76 208.308,51.083 L208.308,51.083 L208.308,51.083 Z M217.398,18.974 L217.722,17.562 L210.339,17.562 L210.044,18.768 L213.221,19.356 C213.25,27.387 213.339,30.505 213.427,33.181 C212.162,31.211 210.956,29.475 203.073,17.562 L198.278,17.562 L198.014,18.739 L200.661,19.327 L200.514,35.358 L198.22,35.741 L197.926,37.152 L205.308,37.152 L205.603,35.947 L202.426,35.358 C202.337,24.651 202.279,22.71 202.191,20.709 C203.337,22.592 204.308,24.004 213.427,37.682 L214.927,37.329 L215.104,19.356 L217.398,18.974 L217.398,18.974 L217.398,18.974 Z M192.778,35.358 L192.778,19.356 L195.16,19.003 L195.484,17.562 L187.866,17.562 L187.601,18.768 L190.248,19.356 L190.248,35.358 L187.895,35.741 L187.601,37.152 L195.543,37.152 L195.808,35.947 L192.778,35.358 L192.778,35.358 L192.778,35.358 Z M193.601,46.759 L186.866,46.759 L186.601,47.966 L189.248,48.553 L189.248,64.555 L186.895,64.938 L186.601,66.35 L194.984,66.35 L195.249,65.173 L191.778,64.555 L191.778,57.79 C192.395,57.819 193.19,57.849 193.866,57.849 C194.16,57.849 194.484,57.849 194.778,57.819 C196.308,60.731 197.837,63.497 199.691,66.35 L203.985,66.35 L204.279,65.173 L201.72,64.614 C200.072,62.261 198.661,59.908 197.22,57.408 C199.749,56.672 201.455,54.819 201.455,52.083 C201.455,49.907 200.69,48.289 198.631,47.436 C197.514,46.966 195.955,46.759 193.601,46.759 L193.601,46.759 L193.601,46.759 Z M193.043,48.23 C196.19,48.23 198.661,48.642 198.661,52.172 C198.661,55.584 196.308,56.319 193.278,56.319 C192.925,56.319 192.131,56.29 191.778,56.231 L191.778,48.26 C192.278,48.23 192.66,48.23 193.043,48.23 L193.043,48.23 L193.043,48.23 Z M183.219,35.417 L172.688,35.211 C174.07,33.417 175.423,31.593 185.219,18.503 L185.219,17.562 L170.276,17.562 C170.099,18.592 169.864,20.798 169.805,22.327 L170.952,22.592 L172.07,19.386 L181.718,19.151 C180.277,21.004 178.63,23.239 169.011,36.241 L169.011,37.152 L185.16,37.152 C185.336,35.976 185.601,33.741 185.601,32.24 L184.454,32.005 L183.219,35.417 L183.219,35.417 L183.219,35.417 Z M167.658,48.171 L167.923,46.759 L161.275,46.759 L161.01,47.966 L163.687,48.553 C159.275,60.996 158.892,62.202 158.451,63.555 C158.039,62.261 157.569,60.967 152.774,48.553 L155.303,48.171 L155.598,46.759 L148.332,46.759 L148.038,47.966 L150.009,48.553 L157.069,66.497 L158.892,66.497 L165.716,48.553 L167.658,48.171 L167.658,48.171 L167.658,48.171 Z M164.188,35.358 L164.188,19.356 L166.57,19.003 L166.894,17.562 L159.275,17.562 L159.01,18.768 L161.658,19.356 L161.658,35.358 L159.305,35.741 L159.01,37.152 L166.952,37.152 L167.217,35.947 L164.188,35.358 L164.188,35.358 L164.188,35.358 Z M157.246,26.798 C157.246,21.739 155.039,19.209 151.715,18.18 C150.362,17.768 147.744,17.562 145.244,17.562 L139.42,17.562 L139.155,18.768 L141.802,19.356 L141.802,35.358 L139.449,35.741 L139.155,37.152 L144.303,37.152 C146.568,37.152 149.421,37.035 151.51,36.329 C155.657,34.917 157.246,31.505 157.246,26.798 L157.246,26.798 L157.246,26.798 Z M154.451,26.975 C154.451,30.858 153.392,33.741 150.539,34.799 C149.715,35.094 148.45,35.358 146.391,35.358 C145.921,35.358 144.862,35.329 144.332,35.27 L144.332,19.239 C144.921,19.151 145.832,19.151 146.391,19.151 C149.245,19.151 150.804,19.709 151.686,20.298 C153.539,21.445 154.451,24.122 154.451,26.975 L154.451,26.975 L154.451,26.975 Z M141.655,48.553 L141.655,64.555 L139.302,64.938 L139.008,66.35 L146.95,66.35 L147.214,65.144 L144.185,64.555 L144.185,48.553 L146.567,48.201 L146.891,46.759 L139.272,46.759 L139.008,47.966 L141.655,48.553 L141.655,48.553 L141.655,48.553 Z M136.655,48.171 L136.979,46.759 L129.596,46.759 L129.302,47.966 L132.479,48.553 C132.508,56.584 132.596,59.702 132.684,62.379 C131.419,60.408 130.214,58.672 122.33,46.759 L117.536,46.759 L117.271,47.936 L119.918,48.524 L119.771,64.555 L117.477,64.938 L117.183,66.35 L124.566,66.35 L124.86,65.144 L121.683,64.555 C121.595,53.849 121.536,51.907 121.448,49.907 C122.595,51.789 123.566,53.201 132.684,66.879 L134.185,66.526 L134.361,48.553 L136.655,48.171 L136.655,48.171 L136.655,48.171 Z M126.801,35.299 L126.801,27.651 L131.626,27.857 L132.361,29.975 L133.449,29.799 L133.449,24.004 L132.214,24.239 L131.626,26.034 L126.801,26.21 L126.801,19.062 L133.508,19.268 L134.155,22.092 L135.42,21.739 C135.626,19.974 135.685,18.945 135.685,17.562 L121.889,17.562 L121.624,18.768 L124.272,19.356 L124.272,35.358 L121.919,35.741 L121.624,37.152 L136.479,37.152 C136.655,35.77 136.773,34.064 136.803,32.27 L135.332,32.564 L134.508,35.564 L126.801,35.299 L126.801,35.299 L126.801,35.299 Z M116.801,35.358 L116.801,19.356 L119.212,19.003 L119.507,17.562 L113.83,17.562 C109.623,26.298 108.535,28.652 107.653,30.564 C106.888,28.74 105.858,26.504 101.623,17.562 L96.151,17.562 L95.887,18.739 L98.592,19.356 L98.299,35.358 L96.004,35.741 L95.681,37.152 L103.064,37.152 L103.328,35.947 L100.181,35.358 C100.181,24.533 100.151,23.475 100.092,20.092 C100.858,21.886 102.064,24.563 106.446,33.77 L107.859,33.623 C112.947,23.327 113.742,21.621 114.359,20.092 C114.301,23.886 114.301,25.357 114.301,35.358 L111.859,35.741 L111.535,37.152 L119.566,37.152 L119.83,35.947 L116.801,35.358 L116.801,35.358 L116.801,35.358 Z M95.799,46.759 L95.563,47.966 L98.063,48.553 L98.063,58.084 C98.063,60.378 98.092,62.261 98.71,63.555 C99.828,65.968 102.181,66.791 105.446,66.791 C108.947,66.791 110.859,65.585 111.888,63.702 C112.624,62.349 112.712,60.761 112.742,57.76 C112.771,54.466 112.8,51.848 112.888,48.553 L115.065,48.171 L115.33,46.759 L108.564,46.759 L108.329,47.966 L110.918,48.553 C110.977,52.083 111.065,54.76 111.065,58.29 C111.065,60.437 110.829,62.114 110.359,63.026 C109.506,64.643 107.564,65.056 105.535,65.056 C103.123,65.056 101.945,64.261 101.269,63.085 C100.74,62.173 100.593,60.585 100.593,58.614 L100.593,48.553 L103.093,48.201 L103.417,46.759 L95.799,46.759 L95.799,46.759 L95.799,46.759 Z M83.571,47.672 C83.825,45.812 84,43.929 84,42 C84,40.041 83.818,38.128 83.558,36.239 C80.756,15.884 63.413,0.181 42.329,0.017 C42.218,0.016 42.111,0 42,0 L41.999,0 C18.805,0 0,18.805 0,41.999 L0,42 C0,42.098 0.015,42.192 0.015,42.289 C0.161,63.557 16.101,81.021 36.685,83.626 C38.431,83.847 40.196,84 42,84 C44.027,84 46.005,83.805 47.955,83.527 C66.466,80.893 81.061,66.23 83.571,47.672 L83.571,47.672 L83.571,47.672 Z M82.085,42 C82.085,64.138 64.139,82.085 42,82.085 C19.862,82.085 1.915,64.138 1.915,42 C1.915,19.862 19.862,1.915 42,1.915 C64.139,1.915 82.085,19.862 82.085,42 L82.085,42 L82.085,42 Z M71.802,23.789 L71.798,60.21 C72.286,59.414 72.731,58.619 73.122,57.847 C73.146,57.807 73.164,57.771 73.182,57.734 L73.194,57.711 C73.371,57.362 73.535,57.017 73.708,56.651 C73.732,56.597 73.751,56.553 73.77,56.507 L73.825,56.391 C74.292,55.355 74.713,54.288 75.078,53.222 L75.127,53.08 C75.144,53.024 75.164,52.964 75.185,52.905 C75.205,52.843 75.226,52.78 75.244,52.715 C75.325,52.479 75.395,52.241 75.462,52.011 L75.502,51.881 C75.556,51.698 75.608,51.513 75.66,51.329 L75.75,51 C75.8,50.809 75.851,50.617 75.898,50.427 C75.975,50.133 76.039,49.836 76.091,49.597 L76.135,49.395 C76.172,49.241 76.21,49.082 76.238,48.932 C76.347,48.39 76.433,47.908 76.501,47.458 C76.521,47.334 76.538,47.214 76.554,47.093 L76.577,46.923 C76.634,46.518 76.677,46.176 76.715,45.846 L76.721,45.784 C76.737,45.608 76.754,45.433 76.773,45.255 C76.809,44.846 76.836,44.485 76.855,44.152 L76.876,43.837 C76.881,43.769 76.886,43.702 76.887,43.635 C76.915,43.056 76.929,42.522 76.929,42.002 C76.929,41.492 76.916,40.979 76.888,40.39 C76.879,40.219 76.871,40.067 76.859,39.919 C76.837,39.494 76.801,39.064 76.773,38.737 L76.762,38.646 C76.753,38.53 76.742,38.415 76.731,38.301 C76.669,37.727 76.607,37.23 76.534,36.738 C76.526,36.679 76.515,36.619 76.504,36.558 C76.496,36.519 76.49,36.486 76.485,36.454 L76.477,36.404 C76.41,35.993 76.34,35.596 76.267,35.221 L76.199,34.893 C76.181,34.804 76.163,34.716 76.143,34.628 C76.081,34.348 76.013,34.047 75.925,33.685 L75.848,33.373 C75.825,33.279 75.802,33.188 75.777,33.093 C75.667,32.669 75.541,32.221 75.402,31.763 L75.365,31.648 C75.329,31.54 75.299,31.446 75.27,31.349 L75.186,31.103 C75.102,30.85 75.02,30.603 74.933,30.356 L74.787,29.955 C74.744,29.84 74.703,29.724 74.66,29.61 C74.612,29.487 74.563,29.365 74.514,29.242 L74.413,28.988 C74.045,28.069 73.627,27.147 73.171,26.249 L72.948,25.816 C72.781,25.492 72.632,25.215 72.492,24.969 L72.305,24.641 C72.139,24.353 71.973,24.072 71.802,23.789 L71.802,23.789 L71.802,23.789 Z M65.958,58.211 L65.958,27.629 C65.809,20.952 64.338,13.598 54.569,9.694 C54.333,9.6 54.089,9.511 53.842,9.421 L53.381,9.26 C52.862,9.077 52.282,8.892 51.603,8.696 L51.496,8.665 C51.372,8.63 51.263,8.598 51.155,8.569 C50.484,8.385 49.835,8.226 49.171,8.083 L49.067,8.06 C48.431,7.927 47.741,7.808 46.958,7.696 L46.43,7.629 C45.865,7.557 45.311,7.5 44.78,7.46 L44.626,7.447 C44.474,7.433 44.325,7.421 44.174,7.413 C43.306,7.359 42.657,7.337 42.003,7.337 C41.52,7.337 41.004,7.35 40.38,7.378 L40.184,7.389 C40.133,7.392 40.082,7.395 40.032,7.4 L39.867,7.411 C39.555,7.429 39.204,7.454 38.765,7.492 L38.531,7.515 C38.415,7.526 38.3,7.538 38.187,7.55 C37.794,7.594 37.456,7.637 37.123,7.686 L36.913,7.716 C36.79,7.731 36.693,7.741 36.595,7.76 C36.065,7.844 35.572,7.931 35.128,8.02 C34.99,8.048 34.856,8.078 34.721,8.111 L34.503,8.16 C34.214,8.223 33.926,8.289 33.637,8.357 C33.385,8.422 33.129,8.49 32.874,8.56 C32.645,8.621 32.425,8.684 32.202,8.752 C31.869,8.848 31.607,8.929 31.374,9.005 C31.245,9.046 31.125,9.087 31.001,9.131 L30.867,9.176 C29.792,9.541 28.732,9.96 27.719,10.42 L27.485,10.526 C27.17,10.668 26.835,10.829 26.43,11.031 L26.276,11.113 C25.742,11.386 25.204,11.678 24.676,11.983 C25.049,11.953 25.423,11.937 25.792,11.937 C29.947,11.937 33.978,13.876 36.597,17.13 C39.217,13.876 43.248,11.937 47.401,11.937 C55.043,11.937 61.26,18.153 61.26,25.793 L61.26,58.211 C61.26,59.896 59.892,61.265 58.209,61.265 C56.524,61.265 55.152,59.896 55.152,58.211 L55.152,25.793 C55.152,21.52 51.676,18.044 47.401,18.044 C43.128,18.044 39.652,21.52 39.652,25.793 L39.652,58.211 C39.652,59.896 38.282,61.265 36.597,61.265 C34.913,61.265 33.544,59.896 33.544,58.211 L33.544,25.793 C33.544,21.52 30.066,18.044 25.792,18.044 C21.518,18.044 18.041,21.52 18.041,25.793 L18.041,55.826 C18.179,67.957 23.652,71.891 28.989,74.138 C29.416,74.314 29.88,74.49 30.369,74.661 C30.411,74.679 30.441,74.691 30.472,74.699 L30.542,74.72 C30.588,74.734 30.62,74.745 30.651,74.759 C31.265,74.969 31.855,75.154 32.396,75.308 L32.531,75.346 C32.655,75.382 32.758,75.411 32.86,75.444 C33.655,75.655 34.263,75.802 34.826,75.922 L34.923,75.942 C35.534,76.07 36.226,76.19 37.04,76.308 L37.575,76.378 C38.137,76.45 38.691,76.508 39.217,76.548 L39.595,76.578 C39.671,76.584 39.748,76.591 39.824,76.593 C40.715,76.648 41.368,76.671 42.007,76.671 C42.503,76.671 43,76.658 43.618,76.627 C43.739,76.622 43.857,76.614 43.972,76.606 L44.376,76.579 C44.685,76.56 44.962,76.542 45.226,76.514 C45.392,76.5 45.549,76.484 45.705,76.468 L45.795,76.458 C46.118,76.422 46.473,76.38 46.877,76.32 L47.055,76.295 C47.206,76.275 47.307,76.261 47.404,76.245 C47.915,76.164 48.411,76.077 48.878,75.985 L49.809,75.775 C49.997,75.734 50.178,75.695 50.354,75.648 C50.509,75.612 50.657,75.571 50.803,75.532 L51.129,75.446 C51.351,75.387 51.574,75.321 51.795,75.253 L52.142,75.151 C52.306,75.104 52.47,75.056 52.633,75.005 C52.724,74.968 52.847,74.926 52.964,74.892 L53.126,74.835 C54.225,74.46 55.286,74.041 56.281,73.588 L56.524,73.478 C56.844,73.332 57.187,73.167 57.574,72.975 C57.649,72.932 57.689,72.91 57.728,72.891 C58.273,72.612 58.81,72.32 59.33,72.021 C58.954,72.051 58.578,72.067 58.207,72.067 C54.05,72.067 50.018,70.13 47.401,66.879 C44.785,70.13 40.754,72.067 36.597,72.067 C28.955,72.067 22.738,65.852 22.738,58.211 L22.738,25.794 C22.738,24.11 24.108,22.739 25.792,22.739 C27.476,22.739 28.846,24.11 28.846,25.794 L28.846,58.211 C28.846,62.487 32.323,65.965 36.597,65.965 C40.871,65.965 44.347,62.487 44.347,58.211 L44.347,25.794 C44.347,24.11 45.717,22.739 47.401,22.739 C49.086,22.739 50.456,24.11 50.456,25.794 L50.456,58.211 C50.456,62.487 53.933,65.965 58.207,65.965 C62.481,65.965 65.958,62.487 65.958,58.211 L65.958,58.211 L65.958,58.211 Z M11.677,59.358 C11.832,59.628 11.995,59.904 12.182,60.209 L12.182,23.798 C11.688,24.605 11.255,25.378 10.861,26.154 L10.782,26.31 C10.594,26.681 10.423,27.036 10.272,27.363 L10.161,27.605 C9.716,28.584 9.294,29.655 8.906,30.789 L8.864,30.909 C8.819,31.043 8.777,31.167 8.738,31.29 C8.667,31.505 8.601,31.723 8.536,31.941 L8.407,32.381 C8.367,32.521 8.327,32.661 8.288,32.804 C8.219,33.06 8.149,33.319 8.085,33.578 C8.013,33.866 7.949,34.153 7.886,34.44 L7.82,34.733 C7.794,34.848 7.768,34.962 7.745,35.078 C7.645,35.577 7.556,36.071 7.481,36.545 L7.469,36.628 C7.457,36.715 7.445,36.801 7.435,36.887 L7.407,37.084 C7.351,37.487 7.307,37.828 7.269,38.159 L7.211,38.743 C7.176,39.151 7.149,39.502 7.127,39.85 L7.117,40.032 C7.11,40.125 7.105,40.212 7.1,40.302 L7.096,40.375 C7.071,40.926 7.058,41.455 7.055,41.991 C7.055,42.497 7.068,43.027 7.094,43.612 L7.123,44.088 C7.151,44.528 7.179,44.912 7.211,45.262 L7.257,45.737 C7.314,46.268 7.377,46.767 7.45,47.259 L7.481,47.452 C7.486,47.471 7.491,47.498 7.496,47.528 L7.509,47.605 C7.582,48.058 7.648,48.431 7.719,48.781 C7.757,48.98 7.798,49.177 7.844,49.373 C7.905,49.67 7.974,49.962 8.058,50.313 L8.099,50.482 C8.133,50.628 8.169,50.77 8.206,50.91 C8.324,51.359 8.451,51.807 8.585,52.242 C8.633,52.398 8.683,52.55 8.736,52.71 L8.803,52.908 C8.882,53.153 8.964,53.398 9.049,53.642 C9.14,53.896 9.231,54.147 9.325,54.394 C9.399,54.591 9.476,54.779 9.552,54.967 L9.568,55.007 C9.945,55.946 10.365,56.872 10.815,57.761 L10.915,57.955 C10.953,58.031 10.993,58.108 11.032,58.183 C11.202,58.504 11.352,58.785 11.494,59.04 L11.677,59.358 L11.677,59.358 L11.677,59.358 Z M171.716,48.553 L171.716,64.555 L169.363,64.938 L169.069,66.35 L183.924,66.35 C184.101,64.967 184.218,63.261 184.247,61.467 L182.776,61.761 L181.953,64.762 L174.246,64.497 L174.246,56.849 L179.07,57.055 L179.806,59.172 L180.894,58.996 L180.894,53.201 L179.659,53.437 L179.07,55.231 L174.246,55.407 L174.246,48.26 L180.953,48.466 L181.6,51.289 L182.865,50.936 C183.071,49.172 183.13,48.142 183.13,46.759 L169.334,46.759 L169.069,47.966 L171.716,48.553 L171.716,48.553 L171.716,48.553 Z M247.812,46.759 L231.369,46.759 C231.369,48.377 231.399,50.289 231.516,51.76 L232.722,51.466 L233.428,48.612 L238.164,48.347 L238.164,64.555 L235.723,64.938 L235.399,66.35 L243.488,66.35 L243.753,65.144 L240.664,64.555 L240.664,48.347 L245.695,48.612 L246.341,51.848 L247.518,51.554 C247.724,50.289 247.812,48.053 247.812,46.759 L247.812,46.759 L247.812,46.759 Z M254.225,44.318 C255.019,44.318 255.637,43.876 255.637,42.906 C255.637,41.759 254.96,41.464 254.284,41.464 C253.548,41.464 252.872,41.818 252.872,42.906 C252.872,43.995 253.578,44.318 254.225,44.318 L254.225,44.318 L254.225,44.318 Z M259.078,44.318 C259.872,44.318 260.49,43.876 260.49,42.906 C260.49,41.759 259.814,41.464 259.137,41.464 C258.401,41.464 257.725,41.818 257.725,42.906 C257.725,43.995 258.431,44.318 259.078,44.318 L259.078,44.318 L259.078,44.318 Z M246.724,64.938 L246.401,66.35 L253.754,66.35 L254.019,65.144 L250.754,64.555 L252.607,59.555 L259.902,59.555 L261.755,64.555 L258.901,64.938 L258.637,66.35 L266.608,66.35 L266.874,65.144 L264.52,64.555 L257.725,46.553 L255.784,46.553 L248.724,64.555 L246.724,64.938 L246.724,64.938 L246.724,64.938 Z M253.195,57.878 C255.195,52.524 255.813,50.878 256.254,49.407 C256.754,50.936 257.313,52.466 259.284,57.878 L253.195,57.878 L253.195,57.878 L253.195,57.878 Z M272.197,48.347 L272.197,64.555 L269.756,64.938 L269.432,66.35 L277.521,66.35 L277.785,65.144 L274.697,64.555 L274.697,48.347 L279.727,48.612 L280.375,51.848 L281.551,51.554 C281.757,50.289 281.845,48.053 281.845,46.759 L265.402,46.759 C265.402,48.377 265.431,50.289 265.549,51.76 L266.755,51.466 L267.461,48.612 L272.197,48.347 L272.197,48.347 L272.197,48.347 Z" id="Fill-1"></path>                        </g>                    </g>                </g>            </g>        </g>    </g></svg>